<svg width="68" height="70" viewBox="0 0 68 70" fill="none" xmlns="http://www.w3.org/2000/svg">
<path d="M0 0.875C72.4929 0.875 55.6446 49.2137 55.7205 56.6785L68 69.125H64.0536L53.3679 58.2781C47.4482 58.918 34.4857 63.534 20.825 52.6414C7.13393 41.7488 7.89286 28.7082 0 0.875ZM12.0973 7.88281C4.55357 4.30273 11.308 9.28437 11.308 9.28437C18.1688 14.0375 21.3259 20.5121 24.9991 27.5504C29.7804 36.7215 36.9902 48.8328 46.8866 53.0984C56.7527 57.3641 52.0777 55.0027 47.7973 51.8035C43.517 48.5738 37.4455 38.5496 33.9848 31.9684C29.1732 22.8277 24.7259 13.9004 12.0973 7.88281Z" fill="#E16259"/>
</svg>
